<svg xmlns="http://www.w3.org/2000/svg" version="1.1" viewBox="-5.0 -10.0 110.0 135.0">
 <path d="m54.027 28.559c-0.39453 0.035156-0.75781 0.22656-1.0117 0.53125-0.52734 0.63672-0.4375 1.582 0.19922 2.1094l20.906 17.297h-52.406c-0.82812 0.003906-1.4961 0.67188-1.4961 1.5-0.003906 0.39844 0.15234 0.78125 0.43359 1.0625 0.28125 0.28516 0.66406 0.44141 1.0625 0.44141h52.402l-20.898 17.285-0.003906 0.003906c-0.63672 0.52734-0.72656 1.4727-0.19922 2.1094 0.25391 0.30859 0.61719 0.50391 1.0117 0.54297 0.39844 0.039063 0.79297-0.082031 1.1016-0.33594l24.117-19.953h-0.003906c0.003906 0 0.003906-0.003906 0.007812-0.003906 0.0625-0.054688 0.12109-0.11328 0.17578-0.17578 0.003907-0.007812 0.007813-0.011718 0.011719-0.015625 0.003906-0.003906 0.003906-0.003906 0.007812-0.003906 0.015626-0.019531 0.027344-0.039063 0.042969-0.058594 0.019531-0.027343 0.039063-0.054687 0.058594-0.085937s0.039063-0.066406 0.058594-0.097656l0.046875-0.09375c0.011718-0.03125 0.023437-0.0625 0.035156-0.089844 0.003906-0.007813 0.003906-0.015625 0.007812-0.019532v-0.003906c0.011719-0.027344 0.019532-0.058594 0.03125-0.089844 0.007813-0.035156 0.015626-0.066406 0.023438-0.10156s0.015625-0.070312 0.019531-0.10547c0.007813-0.035156 0.011719-0.074219 0.011719-0.11328 0.003906-0.03125 0.003906-0.066406 0.003906-0.097656 0-0.035156 0-0.070313-0.003906-0.10547 0-0.035156-0.003906-0.074219-0.011719-0.10938-0.003906-0.035156-0.011719-0.070312-0.019531-0.10547-0.007812-0.035156-0.019531-0.070312-0.027344-0.10547-0.011718-0.035156-0.023437-0.066406-0.035156-0.10156-0.011719-0.03125-0.023438-0.058594-0.035156-0.089844l-0.046875-0.09375c-0.007813-0.015625-0.015625-0.03125-0.023438-0.042968-0.011719-0.023438-0.023437-0.042969-0.035156-0.0625-0.015625-0.023438-0.035156-0.050782-0.054687-0.074219-0.015626-0.023438-0.03125-0.046875-0.046876-0.066407-0.003906-0.003906-0.011718-0.007812-0.015624-0.011718-0.054688-0.070313-0.11719-0.13281-0.1875-0.1875l-24.117-19.953c-0.30469-0.25391-0.70312-0.37109-1.0977-0.33203z"/>
</svg>