<svg xmlns="http://www.w3.org/2000/svg" version="1.1" viewBox="-5.0 -10.0 110.0 135.0">
 <path d="m45.977 28.559c-0.39844-0.039063-0.79297 0.078125-1.1016 0.33203l-24.117 19.953c-0.03125 0.035156-0.058593 0.070312-0.085937 0.10938-0.039063 0.027344-0.078125 0.058594-0.11328 0.089844-0.023438 0.042969-0.046875 0.082031-0.066406 0.125-0.03125 0.035156-0.058594 0.070312-0.085938 0.10938-0.019531 0.050781-0.039062 0.10156-0.054688 0.15234-0.039062 0.09375-0.066406 0.1875-0.085937 0.28516-0.015625 0.070312-0.027344 0.14453-0.035156 0.21484-0.003907 0.023437-0.011719 0.042968-0.015625 0.066406 0.003906 0.023437 0.011718 0.042968 0.015625 0.066406 0.007812 0.074219 0.019531 0.15234 0.035156 0.22266 0.019531 0.097656 0.046875 0.19141 0.085937 0.28125 0.011719 0.050782 0.03125 0.10156 0.050782 0.14844 0.027344 0.039062 0.058594 0.078125 0.089844 0.11328 0.019531 0.042969 0.042968 0.085937 0.066406 0.12891 0.035156 0.027344 0.070312 0.058594 0.10938 0.085938 0.027343 0.039062 0.058593 0.074219 0.089843 0.11328l24.117 19.953c0.30859 0.25 0.70312 0.37109 1.0977 0.33203 0.39844-0.039062 0.76172-0.23438 1.0156-0.53906 0.52344-0.64062 0.4375-1.582-0.19922-2.1094l-20.902-17.289h52.402-0.003906c0.39844-0.003906 0.78125-0.16016 1.0625-0.44531 0.28125-0.28125 0.4375-0.66406 0.4375-1.0625-0.003906-0.82812-0.67188-1.4961-1.5-1.4961h-52.402l20.906-17.297c0.63672-0.53125 0.72656-1.4766 0.19922-2.1133-0.25391-0.30469-0.62109-0.49609-1.0117-0.53125z"/>
</svg>