<svg xmlns="http://www.w3.org/2000/svg" version="1.1" viewBox="-5.0 -10.0 110.0 135.0">
 <path d="m85.484 61.184c-1.625 0-2.9414 1.3164-2.9414 2.9414v14.258l-23.312-23.312c-1.1484-1.1484-3.0117-1.1484-4.1602 0-1.1484 1.1484-1.1484 3.0117 0 4.1602l23.172 23.172h-14.258c-1.625 0-2.9414 1.3164-2.9414 2.9414s1.3164 2.9414 2.9414 2.9414h21.5c1.625 0 2.9414-1.3164 2.9414-2.9414v-21.219c0-1.625-1.3164-2.9414-2.9414-2.9414z"/>
 <path d="m40.77 55.07-23.172 23.172v-14.258c0-1.625-1.3164-2.9414-2.9414-2.9414s-2.9414 1.3164-2.9414 2.9414v21.5c0 1.625 1.3164 2.9414 2.9414 2.9414h21.219c1.625 0 2.9414-1.3164 2.9414-2.9414s-1.3164-2.9414-2.9414-2.9414h-14.258l23.312-23.312c1.1484-1.1484 1.1484-3.0117 0-4.1602-1.1484-1.1484-3.0117-1.1484-4.1602 0z"/>
 <path d="m21.754 17.598h14.258c1.625 0 2.9414-1.3164 2.9414-2.9414s-1.3164-2.9414-2.9414-2.9414h-21.496c-1.625 0-2.9414 1.3164-2.9414 2.9414v21.219c0 1.625 1.3164 2.9414 2.9414 2.9414s2.9414-1.3164 2.9414-2.9414v-14.258l23.312 23.312c0.57422 0.57422 1.3281 0.86328 2.0781 0.86328 0.75391 0 1.5078-0.28516 2.0781-0.86328 1.1484-1.1484 1.1484-3.0117 0-4.1602z"/>
 <path d="m57.152 45.789c0.75391 0 1.5078-0.28516 2.0781-0.86328l23.172-23.172v14.258c0 1.625 1.3164 2.9414 2.9414 2.9414s2.9414-1.3164 2.9414-2.9414v-21.496c0-1.625-1.3164-2.9414-2.9414-2.9414h-21.219c-1.625 0-2.9414 1.3164-2.9414 2.9414s1.3164 2.9414 2.9414 2.9414h14.258l-23.312 23.312c-1.1484 1.1484-1.1484 3.0117 0 4.1602 0.57422 0.57422 1.3281 0.86328 2.0781 0.86328z"/>
</svg>