<?xml version="1.0" encoding="UTF-8" standalone="no"?><!DOCTYPE svg PUBLIC "-//W3C//DTD SVG 1.1//EN" "http://www.w3.org/Graphics/SVG/1.1/DTD/svg11.dtd"><svg width="100%" height="100%" viewBox="0 0 500 500" version="1.1" xmlns="http://www.w3.org/2000/svg" xmlns:xlink="http://www.w3.org/1999/xlink" xml:space="preserve" xmlns:serif="http://www.serif.com/" style="fill-rule:evenodd;clip-rule:evenodd;stroke-linecap:round;stroke-linejoin:round;stroke-miterlimit:1.5;"><path d="M348.35,270.766l-12.294,7.818l0,442.542c9.147,-1.322 17.285,-2.85 24.588,-4.512l-0,-445.481c-7.696,-0.438 -12.294,-0.367 -12.294,-0.367Z" style="fill:#e6e6e6;fill-rule:nonzero;"/><path d="M237.706,325.1l0,401.253c4.02,0.054 8.065,0.107 12.294,0.107c4.229,0 8.274,-0.044 12.294,-0.107l-0,-401.253c-7.438,3.788 -17.15,3.788 -24.588,-0Z" style="fill:#e6e6e6;fill-rule:nonzero;"/><path d="M188.531,294.221l0,429.728c7.647,0.68 15.835,1.233 24.575,1.653l0.013,-415.745l-24.588,-15.636Z" style="fill:#e6e6e6;fill-rule:nonzero;"/><path d="M151.65,270.766c-0,0 -4.598,-0.071 -12.294,0.358l0,445.481c7.303,1.662 15.441,3.19 24.588,4.512l-0,-442.533l-12.294,-7.818Z" style="fill:#e6e6e6;fill-rule:nonzero;"/><path d="M286.881,309.857l0,415.736c8.741,-0.411 16.929,-0.964 24.588,-1.652l-0,-429.72l-24.588,15.636Z" style="fill:#e6e6e6;fill-rule:nonzero;"/><path d="M-8.28,324.769c0.013,0.143 0.111,0.259 0.111,0.402l-0,142.165l24.588,0l-0,-160.276c-8.508,5.165 -16.818,10.981 -24.699,17.709Z" style="fill:#e6e6e6;fill-rule:nonzero;"/><path d="M385.231,273.616l0,435.886c11.286,-4.146 19.142,-8.542 24.588,-12.599l-0,-418.783c-8.839,-1.993 -17.101,-3.449 -24.588,-4.504Z" style="fill:#e6e6e6;fill-rule:nonzero;"/><path d="M90.181,278.12l0,418.783c5.446,4.057 13.302,8.453 24.588,12.599l-0,-435.886c-7.487,1.055 -15.749,2.511 -24.588,4.504Z" style="fill:#e6e6e6;fill-rule:nonzero;"/><path d="M41.006,294.203l0,173.133l24.588,0l-0,-182.479c-8.077,2.609 -16.327,5.682 -24.588,9.346Z" style="fill:#e6e6e6;fill-rule:nonzero;"/><path d="M508.28,324.769c-7.881,-6.728 -16.191,-12.544 -24.699,-17.709l0,160.276l24.588,0l0,-142.165c0,-0.143 0.098,-0.259 0.111,-0.402Z" style="fill:#e6e6e6;fill-rule:nonzero;"/><path d="M434.406,284.857l0,182.479l24.588,0l-0,-173.133c-8.261,-3.664 -16.511,-6.737 -24.588,-9.346Z" style="fill:#e6e6e6;fill-rule:nonzero;"/><path d="M458.994,294.203l-0,173.133l24.587,0l0,-160.276c-8.077,-4.896 -16.326,-9.194 -24.587,-12.857Z" style="fill:#38454f;fill-rule:nonzero;"/><path d="M16.419,307.06l-0,160.276l24.587,0l0,-173.133c-8.261,3.663 -16.51,7.961 -24.587,12.857Z" style="fill:#38454f;fill-rule:nonzero;"/><path d="M235.739,324.242l-22.62,-14.385l-0.013,415.736c7.758,0.367 15.921,0.626 24.6,0.751l0,-401.244c-0.639,-0.331 -1.377,-0.474 -1.967,-0.858Z" style="fill:#38454f;fill-rule:nonzero;"/><path d="M163.944,278.584l-0,442.542c7.499,1.09 15.723,2.028 24.587,2.823l0,-429.728l-24.587,-15.637Z" style="fill:#38454f;fill-rule:nonzero;"/><path d="M114.769,273.616l-0,435.886c6.847,2.519 14.973,4.932 24.587,7.112l0,-445.481c-6.294,0.357 -14.691,1.081 -24.587,2.483Z" style="fill:#38454f;fill-rule:nonzero;"/><path d="M65.594,284.857l-0,182.479l12.293,0l0,214.44c0,0 1.144,6.818 12.294,15.118l0,-418.774c-7.856,1.778 -16.117,4.003 -24.587,6.737Z" style="fill:#38454f;fill-rule:nonzero;"/><path d="M264.261,324.242c-0.59,0.384 -1.328,0.527 -1.967,0.858l-0,401.253c8.667,-0.125 16.83,-0.384 24.587,-0.751l0,-415.745l-22.62,14.385Z" style="fill:#38454f;fill-rule:nonzero;"/><path d="M311.469,294.221l-0,429.728c8.864,-0.795 17.088,-1.733 24.587,-2.823l0,-442.542l-24.587,15.637Z" style="fill:#38454f;fill-rule:nonzero;"/><path d="M409.819,278.12l-0,418.783c11.15,-8.3 12.294,-15.118 12.294,-15.118l-0,-214.44l12.293,0l0,-182.488c-8.47,-2.734 -16.731,-4.959 -24.587,-6.737Z" style="fill:#38454f;fill-rule:nonzero;"/><path d="M360.644,271.133l-0,445.481c9.614,-2.189 17.74,-4.602 24.587,-7.112l0,-435.886c-9.896,-1.402 -18.293,-2.126 -24.587,-2.483Z" style="fill:#38454f;fill-rule:nonzero;"/><path d="M77.887,512.011l-144.427,0c-15.293,0 -27.685,-9.006 -27.685,-20.121l-0,-4.423c-0,-11.115 12.392,-20.131 27.685,-20.131l144.427,0l0,44.675Z" style="fill:#df4d60;fill-rule:nonzero;"/><path d="M566.54,512.011l-144.427,0l-0,-44.675l144.427,0c15.293,0 27.685,9.007 27.685,20.122l0,4.423c0,11.124 -12.392,20.13 -27.685,20.13Z" style="fill:#df4d60;fill-rule:nonzero;"/><path d="M250,328.138c-5.09,-0 -10.179,-1.296 -14.261,-3.896l-84.089,-53.476c-0,0 -20.592,-0.393 -49.175,4.834l-0,75.581l147.525,-23.043Z" style="fill:#38454f;fill-rule:nonzero;"/><path d="M250,328.138c5.09,-0 10.179,-1.296 14.261,-3.896l84.089,-53.476c0,0 20.592,-0.393 49.175,4.834l0,75.581l-147.525,-23.043Z" style="fill:#38454f;fill-rule:nonzero;"/><g><g><path d="M281.947,385.417c0,-0 59.586,-45.912 64.525,-59.298c20.064,-54.378 -3.898,-62.705 -3.898,-62.705" style="fill:none;stroke:#bb9a88;stroke-width:4.17px;"/><path d="M336.7,424.735l-17.314,-24.723l-9.124,6.389l-4.792,-6.843l9.124,-6.389c-5.36,-7.655 -14.895,-10.646 -23.373,-8.057c-0.11,-1.252 -0.54,-2.494 -1.314,-3.598c-2.349,-3.354 -6.972,-4.169 -10.326,-1.82c-3.354,2.349 -4.169,6.972 -1.82,10.326c0.762,1.088 1.764,1.909 2.884,2.441c-5.419,7.089 -5.904,17.143 -0.513,24.842c6.665,9.516 19.782,11.828 29.298,5.164l0.175,-0.125l13.325,12.037c1.441,1.303 3.331,1.982 4.923,0.868l7.979,-5.589c1.593,-1.115 1.984,-3.33 0.868,-4.923Z" style="fill:#bf2345;fill-rule:nonzero;"/><g><path d="M338.004,423.822l-17.314,-24.723c-0.504,-0.72 -1.497,-0.895 -2.217,-0.391l-7.82,5.477l-2.966,-4.236l7.82,-5.477c0.72,-0.504 0.895,-1.496 0.391,-2.216c-5.302,-7.571 -14.55,-11.103 -23.448,-9.113c-0.275,-0.903 -0.693,-1.762 -1.239,-2.542c-2.849,-4.068 -8.475,-5.059 -12.543,-2.211c-4.067,2.849 -5.059,8.475 -2.211,12.543c0.534,0.761 1.181,1.434 1.913,1.994c-2.258,3.476 -3.506,7.481 -3.626,11.681c-0.14,4.887 1.273,9.592 4.085,13.608c6.953,9.929 20.496,12.563 30.633,6.142l12.4,11.202c2.241,2.024 4.886,2.403 6.904,0.99l7.979,-5.588c2.316,-1.621 2.881,-4.824 1.259,-7.14Zm-11.064,10.121c-1.078,0.755 -2.417,-0.269 -2.944,-0.745l-13.325,-12.037c-0.552,-0.499 -1.377,-0.549 -1.985,-0.119l-0.169,0.122c-8.782,6.15 -20.931,4.008 -27.081,-4.774c-4.885,-6.975 -4.694,-16.202 0.474,-22.962c0.291,-0.381 0.395,-0.874 0.282,-1.341c-0.047,-0.195 -0.131,-0.378 -0.243,-0.538c-0.156,-0.223 -0.369,-0.405 -0.621,-0.525c-0.903,-0.429 -1.685,-1.092 -2.263,-1.917c-1.842,-2.63 -1.201,-6.268 1.429,-8.109c2.63,-1.842 6.268,-1.201 8.11,1.429c0.586,0.837 0.943,1.814 1.032,2.825c0.041,0.478 0.297,0.912 0.695,1.18c0.398,0.268 0.896,0.343 1.355,0.203c7.565,-2.31 15.661,0.169 20.639,6.18l-7.768,5.44c-0.719,0.504 -0.895,1.497 -0.39,2.217l4.792,6.843c0.504,0.72 1.497,0.894 2.216,0.39l7.821,-5.476l16.401,23.42c0.614,0.877 0.4,2.091 -0.478,2.706l-7.979,5.588l-0,0Z" style="fill:#000003;fill-rule:nonzero;"/><path d="M286.649,412.739l-0.011,-0.017c-0.483,-0.734 -1.471,-0.936 -2.205,-0.453c-0.734,0.484 -0.937,1.471 -0.453,2.205c0.02,0.031 0.041,0.061 0.062,0.091c0.504,0.72 1.497,0.895 2.217,0.391c0.719,-0.504 0.895,-1.497 0.39,-2.217Z" style="fill:#000003;fill-rule:nonzero;"/><path d="M284.873,409.119c-1.696,-5.454 0.309,-11.32 4.987,-14.597c0.936,-0.655 1.955,-1.186 3.029,-1.576c0.826,-0.301 1.252,-1.214 0.951,-2.04c-0.3,-0.826 -1.213,-1.252 -2.04,-0.951c-1.334,0.485 -2.602,1.145 -3.766,1.96c-5.817,4.074 -8.309,11.367 -6.201,18.149c0.051,0.162 0.124,0.31 0.216,0.441c0.387,0.552 1.099,0.817 1.777,0.607c0.839,-0.262 1.308,-1.154 1.047,-1.993Z" style="fill:#000003;fill-rule:nonzero;"/><path d="M285.138,384.854c-0.503,-0.718 -1.499,-0.893 -2.216,-0.391c-0.719,0.503 -0.894,1.499 -0.391,2.217c0.503,0.717 1.498,0.893 2.216,0.39c0.718,-0.502 0.894,-1.498 0.391,-2.216Z" style="fill:#000003;fill-rule:nonzero;"/></g><path d="M156.947,260.417c0,-0 -18.595,9.728 -7.325,60.659c8.128,36.727 133.693,64.663 133.693,64.663" style="fill:none;stroke:#bb9a88;stroke-width:4.17px;"/><path d="M401.452,198.911c-0,-0 -55.487,40.826 -55.487,95.267c-0,54.441 -95.268,54.441 -95.268,54.441c0,0 -95.267,0 -95.267,-54.441c-0,-54.441 -55.487,-95.267 -55.487,-95.267l301.509,-0Z" style="fill:#689f38;fill-rule:nonzero;"/><path d="M429.021,164.888c-0,54.959 -137.705,117.776 -179.021,117.776c-41.316,0 -179.021,-62.817 -179.021,-117.776c0,-54.96 137.705,-164.888 179.021,-164.888c41.316,-0 179.021,109.928 179.021,164.888Z" style="fill:#7cb342;fill-rule:nonzero;"/><path d="M268.844,28.266c0,0 16.753,52.35 84.8,65.955c27.22,-27.22 25.515,-67.528 -10.996,-87.936c-31.753,-17.761 -73.804,21.981 -73.804,21.981Z" style="fill:#e0e0e0;fill-rule:nonzero;"/><circle cx="325.377" cy="47.111" r="18.844" style="fill:#424242;"/><path d="M341.093,75.895c-17.091,-25.637 -47.384,-38.838 -47.695,-38.97l7.416,-17.318c1.451,0.622 35.785,15.585 55.948,45.83l-15.669,10.458Z" style="fill:#424242;fill-rule:nonzero;"/><path d="M231.156,28.266c-0,0 -16.753,52.35 -84.8,65.955c-27.22,-27.22 -25.515,-67.528 10.996,-87.936c31.753,-17.761 73.804,21.981 73.804,21.981Z" style="fill:#e0e0e0;fill-rule:nonzero;"/><circle cx="174.623" cy="47.111" r="18.844" style="fill:#424242;"/><path d="M158.907,75.895l-15.679,-10.449c20.173,-30.245 54.498,-45.207 55.949,-45.829l7.434,17.308c-0.301,0.132 -30.707,13.483 -47.704,38.97Z" style="fill:#424242;fill-rule:nonzero;"/><path d="M250,216.709c-67.877,0 -143.151,-46.554 -146.326,-48.543l9.988,-15.979c0.725,0.452 73.916,45.678 136.338,45.678c62.535,0 135.613,-45.217 136.338,-45.678l9.997,15.979c-3.184,1.989 -78.458,48.543 -146.335,48.543Z" style="fill:#558b2f;fill-rule:nonzero;"/><path d="M400.264,191.42l-17.864,-5.964c6.982,-20.964 -14.265,-35.7 -15.17,-36.313l10.487,-15.659c11.853,7.905 31.809,30.179 22.547,57.936Z" style="fill:#558b2f;fill-rule:nonzero;"/><path d="M99.736,191.42c-9.253,-27.757 10.703,-50.031 22.556,-57.927l10.449,15.678l-5.229,-7.839l5.267,7.821c-0.914,0.612 -22.161,15.348 -15.17,36.313l-17.873,5.954Z" style="fill:#558b2f;fill-rule:nonzero;"/></g></g><clipPath id="_clip1"><polygon points="128.525,370.027 181.516,382.92 168.624,435.911 115.632,423.018 128.525,370.027 "/></clipPath><g clip-path="url(#_clip1)"><path d="M121.361,422.541c-1.948,-0.474 -3.147,-2.444 -2.673,-4.392l2.722,-11.187c0.237,-0.976 1.221,-1.574 2.196,-1.337l12.953,3.152c0.976,0.237 1.574,1.22 1.337,2.196l-3.152,12.954c-0.237,0.975 -1.221,1.573 -2.196,1.336l-11.187,-2.722l0,0Z" style="fill:#ffc033;fill-rule:nonzero;"/><path d="M123.606,405.625c-0.975,-0.237 -1.574,-1.22 -1.337,-2.196l3.152,-12.953c0.237,-0.976 1.221,-1.574 2.196,-1.337l12.953,3.152c0.976,0.237 1.574,1.22 1.337,2.196l-3.152,12.953c-0.237,0.976 -1.221,1.574 -2.196,1.337l-12.953,-3.152l-0,0Z" style="fill:#57c3d9;fill-rule:nonzero;"/><g><path d="M127.617,389.139c-0.975,-0.237 -1.574,-1.22 -1.337,-2.196l2.722,-11.187c0.474,-1.948 2.444,-3.147 4.392,-2.673l11.187,2.722c0.976,0.237 1.574,1.22 1.337,2.196l-3.152,12.953c-0.237,0.976 -1.221,1.574 -2.196,1.337l-12.953,-3.152l-0,0Z" style="fill:#e6563a;fill-rule:nonzero;"/><path d="M136.081,426.123c-0.975,-0.238 -1.574,-1.221 -1.337,-2.197l3.152,-12.953c0.237,-0.976 1.221,-1.574 2.196,-1.337l12.953,3.152c0.976,0.237 1.575,1.22 1.337,2.196l-3.151,12.954c-0.238,0.975 -1.221,1.574 -2.197,1.336l-12.953,-3.151l-0,-0Z" style="fill:#e6563a;fill-rule:nonzero;"/></g><path d="M153.045,412.788l-6.476,-1.576l-4.011,16.486l6.476,1.576c0.976,0.237 1.959,-0.361 2.197,-1.336l3.151,-12.954c0.237,-0.976 -0.361,-1.959 -1.337,-2.196Z" style="fill:#d9472b;fill-rule:nonzero;"/><path d="M140.092,409.636c-0.975,-0.237 -1.574,-1.22 -1.337,-2.196l3.152,-12.953c0.237,-0.976 1.221,-1.574 2.196,-1.337l12.954,3.152c0.975,0.237 1.574,1.22 1.336,2.196l-3.151,12.953c-0.238,0.976 -1.221,1.574 -2.197,1.337l-12.953,-3.152l0,0Z" style="fill:#ffc033;fill-rule:nonzero;"/><path d="M157.057,396.302l-6.477,-1.576l-4.011,16.486l6.476,1.576c0.976,0.237 1.959,-0.361 2.197,-1.337l3.151,-12.953c0.238,-0.976 -0.361,-1.959 -1.336,-2.196Z" style="fill:#f9a926;fill-rule:nonzero;"/><path d="M144.103,393.15c-0.975,-0.237 -1.574,-1.22 -1.337,-2.196l3.152,-12.953c0.237,-0.976 1.221,-1.574 2.196,-1.337l12.954,3.152c0.975,0.237 1.574,1.22 1.336,2.196l-3.151,12.953c-0.238,0.976 -1.221,1.574 -2.196,1.337l-12.954,-3.152Z" style="fill:#e6563a;fill-rule:nonzero;"/><path d="M161.068,379.816l-6.477,-1.576l-4.011,16.486l6.477,1.576c0.975,0.237 1.958,-0.361 2.196,-1.337l3.151,-12.953c0.238,-0.976 -0.361,-1.959 -1.336,-2.196Z" style="fill:#d9472b;fill-rule:nonzero;"/><path d="M152.567,430.134c-0.975,-0.238 -1.574,-1.221 -1.337,-2.197l3.152,-12.953c0.237,-0.976 1.221,-1.574 2.196,-1.337l12.954,3.152c0.975,0.237 1.574,1.22 1.336,2.196l-2.721,11.187c-0.474,1.948 -2.445,3.147 -4.393,2.674l-11.187,-2.722Z" style="fill:#3db1cc;fill-rule:nonzero;"/><path d="M156.578,413.647c-0.975,-0.237 -1.574,-1.22 -1.336,-2.196l3.151,-12.953c0.238,-0.976 1.221,-1.574 2.196,-1.337l12.954,3.152c0.975,0.237 1.574,1.22 1.336,2.196l-3.151,12.954c-0.238,0.975 -1.221,1.573 -2.196,1.336l-12.954,-3.151l0,-0.001Z" style="fill:#f9a926;fill-rule:nonzero;"/><path d="M160.589,397.161c-0.975,-0.237 -1.574,-1.22 -1.336,-2.196l3.151,-12.953c0.238,-0.976 1.221,-1.574 2.196,-1.337l11.187,2.722c1.949,0.474 3.148,2.444 2.674,4.392l-2.722,11.187c-0.238,0.976 -1.221,1.574 -2.196,1.337l-12.954,-3.152l0,0Z" style="fill:#3db1cc;fill-rule:nonzero;"/><path d="M176.217,381.631l-42.393,-10.315c-2.927,-0.712 -5.876,1.084 -6.588,4.01l-10.315,42.393c-0.712,2.927 1.084,5.877 4.01,6.589l42.393,10.314c2.927,0.712 5.877,-1.083 6.589,-4.01l10.314,-42.393c0.712,-2.927 -1.083,-5.876 -4.01,-6.588Zm-43.239,41.866l-11.187,-2.722c-0.974,-0.237 -1.574,-1.222 -1.337,-2.196l2.722,-11.187l12.954,3.151l-3.152,12.954Zm4.011,-16.486l-12.953,-3.152l3.151,-12.954l12.954,3.152l-3.152,12.954Zm4.011,-16.487l-12.953,-3.151l2.721,-11.187c0.237,-0.974 1.223,-1.574 2.197,-1.337l11.187,2.722l-3.152,12.953Zm8.464,36.984l-12.953,-3.152l3.151,-12.953l12.954,3.151l-3.152,12.954Zm4.011,-16.486l-12.953,-3.152l3.151,-12.953l12.954,3.151l-3.152,12.954Zm4.011,-16.487l-12.953,-3.151l3.151,-12.954l12.954,3.152l-3.152,12.953Zm8.894,35.218c-0.237,0.974 -1.222,1.573 -2.196,1.336l-11.187,-2.722l3.151,-12.953l12.954,3.151l-2.722,11.188Zm3.581,-14.72l-12.953,-3.152l3.152,-12.953l12.953,3.151l-3.152,12.954Zm4.012,-16.486l-12.954,-3.152l3.152,-12.954l11.187,2.722c0.974,0.237 1.573,1.222 1.336,2.196l-2.721,11.188Z" style="fill:#e6e6e6;fill-rule:nonzero;"/><path d="M176.217,381.631l-21.196,-5.158l-0.86,3.533l6.477,1.576l-3.152,12.953l-6.476,-1.575l-0.86,3.532l6.477,1.576l-3.152,12.954l-6.477,-1.576l-0.859,3.533l6.477,1.575l-3.152,12.954l-6.477,-1.576l-0.859,3.533l21.196,5.157c2.927,0.712 5.877,-1.083 6.589,-4.01l10.314,-42.393c0.712,-2.927 -1.083,-5.876 -4.01,-6.588Zm-9.837,48.122c-0.237,0.974 -1.222,1.573 -2.196,1.336l-11.187,-2.722l3.151,-12.953l12.954,3.151l-2.722,11.188Zm3.581,-14.72l-12.953,-3.152l3.152,-12.953l12.953,3.151l-3.152,12.954Zm4.012,-16.486l-12.954,-3.152l3.152,-12.954l11.187,2.722c0.974,0.237 1.573,1.222 1.336,2.196l-2.721,11.188Z" style="fill:#e6e6e6;fill-rule:nonzero;"/></g></svg>